<?xml version="1.0" encoding="utf-8"?>
<svg version="1.1" xmlns="http://www.w3.org/2000/svg" xmlns:xlink="http://www.w3.org/1999/xlink" x="0px" y="0px"
	 viewBox="0 0 256 256" style="enable-background:new 0 0 256 256;" xml:space="preserve">
<style type="text/css">
	.st0{fill:#729E49;}
	.st1{fill:#FFFFFF;}
	.st2{opacity:0.3;fill:#729E49;}
</style>
<title>EXT:slimphp-bridge</title>
<rect y="0" class="st0" width="256" height="256"/>
<g>
	<polygon class="st1" points="128,176.6 49,114.1 128,51.7 207,114.1 	"/>
	<polygon class="st2" points="128,160 49,97.5 128,35.1 207,97.5 	"/>
	<polygon class="st1" points="128,143.4 49,81 128,18.5 207,81 	"/>
</g>
<g>
	<path class="st1" d="M72.2,228.7c2.3,1.6,7.2,3.7,11.8,3.7c5.8,0,10.6-3,10.6-8.4c0-3.8-2.1-6.2-7.1-7.6l-7.1-2
		c-5.5-1.6-8.7-4.8-8.7-10.3c0-6,4.3-11.8,13.8-11.8c4.8,0,9.6,1.6,12.3,3.3l-1.3,3.7c-2.5-1.6-7.1-3.1-10.9-3.1
		c-6.9,0-9.9,3.7-9.9,7.9c0,3.6,2.1,5.6,6.2,6.8l7,2.1c6.4,1.9,9.8,5.1,9.8,10.9c0,7.5-6,12.5-14.7,12.5c-5.2,0-10.6-2-12.9-3.5
		L72.2,228.7z"/>
	<path class="st1" d="M111.5,190.9v37.5c0,3.3,1.1,4.2,3,4.2c1.6,0,2.7-0.6,3.7-1.3l0.4,3.3c-1.2,0.8-3.3,1.6-5.5,1.6
		c-3.7,0-5.8-1.8-5.8-6.9v-38.4H111.5z"/>
	<path class="st1" d="M126.9,190.6c1.5,0,2.6,0.8,2.6,2.7c0,1.9-1.1,2.6-2.6,2.6c-1.6,0-2.8-0.8-2.8-2.6
		C124.1,191.4,125.2,190.6,126.9,190.6z M124.8,235.6v-32.9h4v32.9H124.8z"/>
	<path class="st1" d="M180.8,235.6v-20.4c0-6.3-2.4-9.2-8-9.2c-4.5,0-6.9,3-8.3,7.2c0.1,0.4,0.1,0.9,0.1,1.4v21h-4.1v-20.4
		c0-6.3-2.8-9.2-8-9.2c-4.9,0-7.7,3.3-9,7.5v22.1h-4v-32.9h4v5.3c2.1-3.8,5.3-5.9,10.3-5.9c5.1,0,8.5,2.3,9.9,6.7
		c2-4.1,5.1-6.7,10.1-6.7c7.7,0,11,4.2,11,12.5v21H180.8z"/>
</g>
</svg>
